Coordinates
version=1
nRows=13
nColumns=36
inDegrees=yes

Units are S.I. units (second, meters, Newtons, ...)
If the header above contains a line with 'inDegrees', this indicates whether rotational values are in degrees (yes) or radians (no).

endheader
time	pelvis_tilt	pelvis_list	pelvis_rotation	pelvis_tx	pelvis_ty	pelvis_tz	hip_flexion_r	hip_adduction_r	hip_rotation_r	knee_angle_r	knee_angle_r_beta	ankle_angle_r	subtalar_angle_r	mtp_angle_r	hip_flexion_l	hip_adduction_l	hip_rotation_l	knee_angle_l	knee_angle_l_beta	ankle_angle_l	subtalar_angle_l	mtp_angle_l	lumbar_extension	lumbar_bending	lumbar_rotation	arm_flex_r	arm_add_r	arm_rot_r	elbow_flex_r	pro_sup_r	arm_flex_l	arm_add_l	arm_rot_l	elbow_flex_l	pro_sup_l
      0.00000000	    -10.43002170	     -4.41273896	     -4.28979239	     -0.16534922	      0.69874074	     -0.03960744	     80.17031233	     -1.98399655	     -2.77849968	     81.84141738	      1.42840220	     17.68126969	     -8.75657949	     -8.09430093	     85.89034922	    -12.50015902	      5.07598024	     87.52103976	      1.52753031	     17.91250858	     -1.74044828	     -8.09430093	    -24.53592068	      4.18483739	      6.55334549	     13.54529374	    -15.71030830	      8.54220238	     64.33193771	     89.68464833	     15.29982035	    -12.08299865	      7.68851620	     60.54290651	     89.78091336
      0.01666670	     -9.35720601	     -3.34035237	     -4.76266311	     -0.16453103	      0.69847574	     -0.03774527	     79.81401117	     -1.17504018	     -1.38557713	     81.99247896	      1.43103872	     17.78521636	     -5.88113729	     -7.96291273	     84.60539615	    -12.71908822	      4.00552892	     87.67979714	      1.53030115	     16.98702509	      2.19185985	     -7.96291273	    -26.20077182	      2.73310840	      8.40645216	     10.52878980	    -16.92430481	      9.14074668	     76.08275792	     83.32735266	     14.57036273	    -13.75047719	     11.02420928	     72.39272789	     80.32726475
      0.03333330	     -9.99613678	     -2.92518266	     -4.89205446	     -0.16430264	      0.69703069	     -0.03790977	     80.87930843	     -1.00043575	     -0.94348996	     82.32264942	      1.43680128	     18.17521565	     -3.68580471	     -7.93518804	     85.15242042	    -12.78719787	      3.39015527	     87.47926031	      1.52680112	     17.68268802	      5.72975387	     -7.93518804	    -24.89998916	      2.36092356	      8.56944989	      6.86412160	    -15.83522690	      5.97586551	     78.59845854	     81.65003562	     11.59101159	    -12.60080560	      7.85140670	     75.91363820	     78.35682542
      0.05000000	    -10.06491763	     -2.52262360	     -5.02367634	     -0.16539510	      0.69563219	     -0.03798485	     81.24705363	     -0.98300570	     -0.54626291	     82.30654222	      1.43652016	     18.30609774	     -2.01732478	     -7.91420716	     85.07887636	    -12.97146208	      2.86356298	     87.07078399	      1.51967186	     17.85365542	      8.18206185	     -7.91420716	    -23.94394379	      1.86018192	      8.90314895	      4.85813300	    -15.31481065	      4.01099982	     79.17180272	     80.37433967	      9.06542430	    -11.62463323	      6.26017973	     75.68617102	     76.63595570
      0.06666670	     -9.65651009	     -2.10553136	     -5.14503294	     -0.16563856	      0.69003497	     -0.03869793	     81.34215062	     -0.95837260	     -0.02712922	     82.89031591	      1.44670893	     18.64424165	     -1.07649433	     -7.91034183	     84.87201344	    -13.04994912	      2.43621077	     87.36615871	      1.52482712	     18.33107355	      9.75707122	     -7.91034183	    -23.54641324	      1.42653638	      8.83782616	      3.74467363	    -15.08624740	      3.58439271	     79.23758012	     79.24758678	      7.72633374	    -11.31140158	      5.74214852	     75.53926843	     75.44038866
      0.08333330	     -9.48498336	     -1.83915297	     -5.08965082	     -0.16614756	      0.68900479	     -0.03880383	     81.64053484	     -1.13619561	      0.27162945	     83.40224810	      1.45564383	     18.94320457	     -0.17443067	     -7.90744821	     84.91864297	    -13.02216798	      2.22181636	     87.64539228	      1.52970067	     18.57019358	     10.74155310	     -7.90744821	    -23.04062743	      1.22811036	      8.94000183	      2.77772058	    -15.20116203	      3.13318787	     79.40096126	     79.16226443	      6.79107818	    -11.47284621	      5.73403370	     74.59386229	     74.82635173
      0.10000000	     -9.08940371	     -1.65086292	     -5.14174910	     -0.16557084	      0.68877510	     -0.03867029	     81.46610180	     -1.07607089	      0.64174646	     83.62046644	      1.45945246	     19.12161199	      0.29977529	     -7.87659236	     84.60937055	    -13.05692454	      2.13059789	     87.77839711	      1.53202204	     18.72138849	     11.37228289	     -7.87659236	    -22.50185096	      1.09272922	     10.10489099	      1.71107948	    -15.29102242	      1.55036787	     79.20282623	     80.86869049	      7.06630318	    -11.47430743	      7.15500803	     72.03957005	     73.41829546
      0.11666670	     -8.70213341	     -1.55005230	     -5.23179126	     -0.16722528	      0.68836297	     -0.03878033	     81.27321012	     -0.99884274	      0.83105128	     83.82112359	      1.46295459	     19.23375808	      0.46346539	     -7.88379249	     84.32063533	    -13.10163029	      2.09726020	     87.98344233	      1.53560076	     19.02735901	     11.95179148	     -7.88379249	    -22.66749477	      1.18661787	     10.24141724	      1.66276491	    -15.69992853	      1.24568018	     78.87927783	     80.67887548	      6.03495892	    -12.00093490	      6.75812695	     71.25874497	     73.12030838
      0.13333330	     -8.47372517	     -1.60302395	     -5.44515256	     -0.16650883	      0.68876959	     -0.03863680	     81.02421712	     -0.80588243	      0.82227812	     83.80317711	      1.46264136	     19.38764243	      0.93985499	     -7.86921392	     84.12047626	    -13.31434459	      2.18365188	     88.15724880	      1.53863425	     19.46588059	     12.50258729	     -7.86921392	    -22.09904066	      1.61614794	     10.81240682	      1.27232024	    -16.01440909	      1.23988219	     78.19252183	     81.61460973	      5.62023610	    -11.79527921	      6.09600988	     67.84134570	     72.98104387
      0.15000000	     -8.32858550	     -1.62535991	     -5.53049483	     -0.16674269	      0.69424931	     -0.03753385	     80.56182117	     -0.68121847	      0.77015944	     83.50744749	      1.45747991	     19.48829490	      1.08941037	     -7.80153967	     83.72732070	    -13.38160433	      2.23414280	     88.00364091	      1.53595329	     19.79176734	     13.04790148	     -7.80153967	    -22.09429696	      1.89766797	     11.33553653	      0.76683481	    -16.16783063	      0.47952807	     77.89240370	     85.40905680	      5.60839694	    -11.93035048	      6.02040645	     65.59921571	     74.50135912
      0.16666670	     -8.27051911	     -1.62748596	     -5.68370339	     -0.16595643	      0.69433588	     -0.03717908	     80.29440562	     -0.45991127	      0.76152110	     83.39676740	      1.45554818	     19.54323678	      1.24341978	     -7.77727684	     83.49500985	    -13.53359021	      2.25784431	     87.97691086	      1.53548676	     20.16496925	     13.49600239	     -7.77727684	    -21.94397839	      2.13650487	     11.44002726	      0.41874453	    -16.37067430	      1.00295143	     77.37113578	     85.11699424	      4.93291424	    -12.11946682	      5.39904108	     63.88674943	     74.29015694
      0.18333330	     -8.28863470	     -1.51957817	     -5.74768920	     -0.16752117	      0.68888148	     -0.03857188	     80.13260593	     -0.39184137	      0.82154001	     83.48779134	      1.45713684	     19.66001305	      1.19034796	     -7.77720284	     83.46302792	    -13.47901836	      2.23006962	     88.08374659	      1.53735140	     20.25443254	     13.49132524	     -7.77720284	    -22.04738884	      2.23896397	     11.66016288	      0.04073429	    -16.42335992	      1.07884145	     77.39440730	     85.15850868	      4.13565473	    -12.44493477	      5.38368348	     63.55250907	     74.32162119
      0.20000000	     -8.62183106	     -1.44139882	     -5.93395035	     -0.16579525	      0.68865849	     -0.03800691	     80.44067021	     -0.18921287	      0.88272546	     83.60612754	      1.45920220	     20.06597683	      1.23852244	     -7.77318451	     83.82298855	    -13.60932623	      2.22280651	     88.30664667	      1.54124174	     20.56762671	     13.66235823	     -7.77318451	    -21.46642215	      2.52141799	     11.70812383	     -0.98248231	    -16.78046558	      1.78112543	     78.03745219	     85.31428548	      2.67473224	    -12.68179038	      5.40848077	     62.61120629	     74.58413455
